<?xml version="1.0" encoding="UTF-8"?>
<!DOCTYPE svg PUBLIC "-//W3C//DTD SVG 1.1//EN" "http://www.w3.org/Graphics/SVG/1.1/DTD/svg11.dtd">
<!-- Creator: CorelDRAW 2017 -->
<svg xmlns="http://www.w3.org/2000/svg" xml:space="preserve" width="210mm" height="297mm" version="1.1" style="shape-rendering:geometricPrecision; text-rendering:geometricPrecision; image-rendering:optimizeQuality; fill-rule:evenodd; clip-rule:evenodd"
viewBox="0 0 21000 29700"
 xmlns:xlink="http://www.w3.org/1999/xlink">
 <defs>
  <style type="text/css">
   <![CDATA[
    .fil1 {fill:none}
    .fil0 {fill:#373435;fill-rule:nonzero}
   ]]>
  </style>
   <clipPath id="id0">
    <path d="M3095.84 1327.88l16042.37 0 0 16042.37 -16042.37 0 0 -16042.37z"/>
   </clipPath>
 </defs>
 <g id="Layer_x0020_1">
  <metadata id="CorelCorpID_0Corel-Layer"/>
  <g>
  </g>
  <g style="clip-path:url(#id0)">
   <g>
    <path class="fil0" d="M9339.69 5136.13c37.33,-103.57 83.66,-191.32 137.19,-261.81 53.54,-70.49 109.95,-129.46 172.14,-176.94 60.74,-47.47 124.37,-83.43 189.44,-107.88 65.08,-24.46 131.6,-43.16 198.49,-57.55 97.07,-20.13 170.09,-18.7 217.57,4.32 47.49,23.02 81.67,53.23 100.76,92.07 19.08,38.84 27.03,81.99 22.75,128.02 -4.28,46.04 -10.73,83.44 -17.9,112.21 -28.71,92.06 -57.05,182.69 -86.83,273.32 -29.79,90.62 -59.94,182.69 -88.64,274.75 68.27,-89.18 143,-175.5 222.78,-258.93 79.78,-83.43 164.24,-156.8 250.51,-220.09 86.27,-63.3 173.98,-115.08 264.22,-153.92 88.8,-38.84 176.89,-57.55 263.2,-57.55 116.52,0 211.48,17.27 284.87,51.79 73.39,34.53 130.6,82 173.08,142.42 41.05,60.41 68.07,130.9 80.72,212.9 12.64,81.99 16.29,171.18 9.9,266.12 -9.29,94.94 -23.96,194.2 -45.82,299.21 -21.87,105.02 -48.05,210.03 -77.1,315.04 -29.06,105.01 -59.2,208.59 -91.49,309.28 -32.29,100.7 -61.36,194.2 -85.74,280.51 -13.64,43.16 -26.92,90.63 -39.83,142.42 -12.91,51.78 -20.78,100.69 -25.07,146.73 -4.28,46.03 -1.01,84.87 9.44,117.95 10.45,33.09 34.56,51.79 74.12,54.67 57.54,0 119.38,-17.26 184.09,-51.79 64.72,-34.52 129.06,-79.12 192.67,-132.34 63.62,-53.23 125.44,-110.77 185.45,-172.62 60.02,-61.86 113.56,-120.84 162.42,-178.38 48.88,-57.54 90.56,-109.33 124.68,-153.92 34.14,-44.6 58.57,-73.37 73.67,-87.75 35.93,-40.28 71.16,-60.42 105.69,-60.42 23.01,0 35.61,12.95 37.43,40.28 1.82,27.33 -0.32,58.98 -6.05,93.5 -3.59,14.39 -26.21,58.98 -68.24,135.22 -42.01,76.24 -100.93,168.31 -176.37,274.76 -75.45,106.45 -164.2,220.09 -266.25,340.93 -102.05,120.84 -214.54,231.6 -338.89,332.3 -124.36,100.69 -257.37,184.13 -397.93,251.74 -140.57,67.61 -287.27,102.13 -439.75,102.13 -126.59,0 -221.2,-30.21 -285.26,-90.62 -64.06,-60.42 -106.19,-139.54 -126.4,-237.36 -20.21,-97.82 -23.89,-210.02 -11.39,-335.17 12.5,-125.16 32.9,-253.18 63.03,-385.53 7.15,-51.78 17.54,-105.01 30.8,-158.23 13.27,-53.23 26.18,-105.02 39.09,-156.8 17.21,-69.05 41.61,-155.36 73.19,-258.94 31.57,-103.57 56.31,-202.83 74.23,-297.77 17.91,-94.94 25.41,-176.94 22.48,-245.99 -2.92,-69.05 -31.72,-103.57 -87.83,-103.57 -86.31,0 -171.51,41.72 -253.81,123.71 -82.29,82 -163.85,195.64 -241.79,340.93 -77.93,145.29 -154.41,319.35 -227.27,519.31 -72.86,199.95 -141.76,418.61 -206.32,654.52 -32.27,129.47 -63.49,237.36 -95.43,325.11 -31.59,86.31 -77.21,153.92 -135.44,202.83 -33.06,28.77 -75.13,53.23 -127.97,74.8 -52.85,21.58 -125.85,37.4 -217.19,46.04 -67.6,5.75 -121.18,7.19 -162.18,4.31 -41.01,-2.88 -74.1,-14.38 -98.21,-33.08 -24.1,-18.71 -41.39,-47.48 -51.48,-87.75 -10.1,-40.28 -16.97,-93.51 -20.62,-159.68 -5.47,-105.01 4.15,-230.16 29.58,-378.33 25.79,-149.61 55.89,-293.46 89.59,-434.43 34.08,-142.42 65.99,-264.69 96.48,-369.7 30.5,-105.02 46.99,-165.43 50.58,-179.82 30.84,-123.71 62.4,-244.55 94.33,-361.07 31.93,-116.52 62.42,-221.53 90.04,-315.03 27.63,-93.51 50.59,-174.06 69.6,-238.8 19.01,-64.73 32.29,-106.45 40.19,-126.59z"/>
    <path id="1" class="fil0" d="M14683.89 5279.99c65.5,60.41 122.01,133.78 169.54,220.09 22.69,41.72 41.07,83.43 57.64,126.59 16.57,43.15 30.27,86.31 39.65,129.47 38.85,5.75 90.98,-1.44 156.06,-20.14 65.08,-18.7 133.04,-43.16 202.42,-73.37 69.39,-30.21 136.26,-61.86 202.05,-94.94 65.79,-33.09 118.99,-61.86 159.26,-84.87 75.48,-48.91 132.27,-86.31 169.3,-113.65 37.02,-27.33 73.33,-34.52 110.03,-20.14 20.86,8.64 34.18,24.46 38.51,47.48 4.34,23.01 0.4,50.34 -10.37,81.99 -23.32,70.49 -63.2,132.34 -121.42,187.01 -58.22,54.66 -123.99,110.76 -195.87,168.31 -115.02,92.06 -245.15,181.25 -390.73,269 -145.23,86.31 -297.66,155.36 -457.3,207.15 -59.57,181.25 -143.96,363.94 -250.99,545.19 -107.05,181.26 -235.68,345.25 -384.46,491.98 -148.42,145.29 -317.37,263.25 -505.03,352.44 -189.09,89.18 -391.54,133.78 -611.63,133.78 -169.75,0 -326.93,-33.09 -471.91,-97.82 -143.54,-64.73 -263.36,-155.36 -357.3,-274.76 -94.32,-117.96 -159.15,-261.81 -193.43,-430.12 -34.28,-168.3 -26.15,-356.75 25.85,-565.33 51.64,-207.15 137.44,-412.86 257.77,-618.57 121.41,-204.27 263.33,-386.96 429.73,-546.64 165.31,-161.11 350.07,-290.58 551.75,-389.83 203.12,-99.26 414.19,-149.61 634.28,-149.61 71.93,0 153.21,2.88 245.27,8.63 90.64,5.75 174.8,25.89 254.3,58.98 78.06,33.09 142.84,84.87 192.88,155.36 50.04,70.49 68.45,169.75 54.15,296.34zm-1414.44 1992.35c69.05,0 134.84,-33.09 197.01,-97.82 62.17,-64.74 121.09,-145.29 175.33,-241.68 54.23,-96.38 101.27,-198.51 141.48,-307.84 40.19,-109.33 70.34,-207.15 91.85,-293.46l7.53 -30.21c-95.69,-43.15 -170.55,-117.95 -226.36,-222.97 -55.83,-105.01 -62.4,-245.98 -17.94,-424.36 20.8,-83.43 69.3,-156.8 144.06,-220.09 74.76,-63.3 153.48,-113.65 237.61,-151.05 -2.91,-46.03 -15.17,-83.43 -36.77,-112.2 -21.59,-28.77 -56.85,-43.16 -105.76,-43.16 -37.4,0 -81.63,10.07 -132.68,30.21 -76.94,31.65 -152.77,87.75 -224.65,168.31 -73.31,80.55 -139.41,172.62 -200.12,277.63 -60.69,105.01 -116.35,218.66 -165.53,340.93 -49.19,122.28 -89.02,241.67 -117.71,356.75 -45.18,181.26 -67.37,333.74 -68,457.45 -0.64,123.72 13.46,222.97 43.36,299.22 28.47,76.24 66.63,130.9 113.04,163.99 46.42,33.08 95.34,50.35 144.25,50.35z"/>
    <path id="2" class="fil0" d="M6213.39 11133.31c25.87,-34.52 69,-69.04 127.59,-102.13 58.6,-33.09 122.95,-60.42 194.86,-83.44 71.92,-23.01 147.06,-41.71 225.46,-56.1 78.38,-14.38 152.11,-21.58 221.16,-21.58 40.27,0 71.2,8.64 92.43,27.34 21.24,18.7 36.36,44.59 44.3,76.24 7.93,31.65 9.39,66.17 5.47,105.01 -3.93,38.84 -11.45,80.56 -22.21,123.71 -21.52,86.31 -53.09,195.64 -95.07,329.42 -41.98,133.79 -86.11,276.2 -132.04,425.81 -45.92,149.6 -88.62,297.77 -129.87,445.94 -41.25,148.16 -73.52,283.39 -95.01,404.22 -21.5,120.84 -29.7,217.22 -24.97,290.58 4.73,73.37 31.37,110.77 80.28,110.77 57.54,0 121.9,-21.58 191.28,-63.3 69.37,-41.71 138.38,-93.5 208.47,-155.36 70.08,-61.85 139.8,-128.03 208.08,-199.95 68.28,-71.93 129.73,-139.54 183.98,-201.39 54.26,-61.86 98.83,-113.65 135.12,-155.36 36.29,-41.72 58.57,-61.86 67.2,-61.86 25.9,0 41.73,11.51 47.14,35.96 5.41,24.46 4,53.23 -4.25,86.31 -8.25,33.09 -19.73,67.61 -34.09,102.14 -14.36,34.52 -26.93,61.86 -37.71,81.99 -28.72,57.55 -72.55,129.47 -132.91,215.78 -60.35,86.31 -131.86,176.94 -213.06,271.88 -81.21,94.94 -171.05,189.89 -270.96,284.83 -99.91,94.94 -207.37,179.81 -320.97,254.62 -113.59,74.8 -230.78,135.22 -353.38,182.69 -122.6,47.47 -246.66,71.93 -370.38,71.93 -92.06,0 -163.29,-31.65 -214.04,-93.51 -50.75,-61.85 -86.05,-139.53 -107.33,-233.04 -21.29,-93.5 -31.79,-195.64 -29.71,-307.84 2.07,-112.21 9.91,-218.66 23.51,-319.35 6.43,-48.91 13.96,-96.38 22.55,-142.42 8.6,-46.03 17.56,-87.75 26.88,-125.15 -2.15,8.63 4.66,-18.7 19,-81.99 14.35,-63.3 33.71,-146.73 58.09,-250.31 24.38,-103.57 51.98,-220.09 83.9,-348.12 31.92,-128.03 65.64,-251.74 101.51,-372.57 35.88,-120.84 73.56,-231.61 111.25,-330.86 37.69,-99.26 73.24,-172.63 108.45,-221.54zm386.44 -1238.56c22.95,-92.07 61.72,-184.13 115.96,-274.76 54.25,-90.63 116.04,-171.18 184.32,-243.11 68.28,-71.92 140.52,-130.9 217.81,-175.5 75.85,-44.59 147.4,-66.17 213.57,-66.17 86.31,0 151.06,17.26 193.88,53.23 44.26,35.96 73.42,80.55 90.36,133.78 16.95,53.22 22.74,110.76 17.75,171.18 -4.99,60.42 -12.87,115.08 -25.06,163.99 -30.84,123.72 -76.43,231.6 -135.7,325.11 -59.27,93.5 -123.24,171.18 -191.88,233.04 -68.65,61.85 -138.02,109.33 -206.33,140.97 -68.31,31.65 -126.91,47.47 -177.26,47.47 -77.68,0 -139.91,-15.82 -185.6,-46.03 -45.7,-30.21 -80.61,-69.05 -102.94,-117.96 -22.33,-48.91 -33.17,-103.57 -32.48,-163.99 0.67,-60.42 8.54,-120.83 23.6,-181.25z"/>
    <path id="3" class="fil0" d="M9792.4 11595.08c-12.91,51.79 -36.61,106.45 -72.89,165.43 -36.28,58.98 -79.04,115.08 -127.91,166.87 -48.88,51.78 -102.43,93.5 -159.59,126.59 -57.15,33.08 -111.8,50.34 -163.59,50.34 -60.41,0 -96.76,-21.57 -109.38,-63.29 -12.61,-41.72 -15.53,-93.5 -8.38,-156.8 7.15,-63.29 21.12,-130.9 41.93,-202.83 20.82,-71.93 34.79,-139.54 41.94,-202.83 7.15,-63.3 4.58,-116.52 -9.47,-158.24 -14.06,-41.72 -50.75,-61.85 -108.29,-61.85 -89.19,0 -175.83,35.96 -261.37,107.88 -85.54,71.93 -166.39,165.43 -241.12,280.52 -74.36,113.64 -140.44,240.23 -198.6,381.2 -57.8,139.54 -103.37,276.2 -136.36,408.54 -48.41,194.2 -68.08,353.88 -59.73,481.91 8.73,126.59 35.42,227.28 78.99,300.65 43.56,73.36 99.7,125.15 168.77,153.92 69.06,28.77 140.29,43.16 215.09,43.16 126.59,0 249.56,-25.9 368.92,-77.69 119.36,-51.78 231.88,-116.52 335.76,-192.76 103.88,-76.24 199.48,-159.67 288.24,-250.3 88.77,-90.63 167.1,-174.06 235.02,-250.3 67.91,-76.24 123.97,-139.54 167.09,-191.32 43.12,-51.79 71.16,-77.68 85.54,-77.68 25.9,0 40.65,15.82 42.83,47.47 2.19,31.64 -3.19,58.98 -14.69,81.99 -35.92,63.3 -81.89,143.85 -137.92,241.67 -56.04,97.82 -123.21,199.96 -201.89,307.85 -78.69,107.89 -170.67,217.21 -275.96,327.98 -105.3,110.77 -223.54,210.02 -354.75,297.77 -131.2,87.75 -277.16,159.68 -438.95,214.34 -161.8,54.67 -339.8,82 -532.56,82 -155.36,0 -301.03,-33.09 -438.81,-97.82 -137.79,-64.73 -253.29,-155.36 -344.37,-274.76 -91.42,-117.96 -153.38,-261.81 -187.67,-430.12 -34.28,-168.3 -26.14,-356.75 25.85,-565.33 51.64,-207.15 137.44,-412.86 257.77,-618.57 119.98,-204.27 263.34,-386.96 428.29,-546.64 165.32,-161.11 348.63,-290.58 550.31,-389.83 201.69,-99.26 411.32,-149.61 629.97,-149.61 77.68,0 161.13,5.75 250.32,17.26 89.2,11.51 168.34,40.28 235.62,87.75 67.28,47.47 115.89,117.96 147.59,210.03 31.72,92.06 27.86,217.21 -11.59,375.45z"/>
    <path id="4" class="fil0" d="M12414.33 11423.9c65.5,60.41 122.01,133.78 169.55,220.09 22.69,41.72 41.06,83.43 57.63,126.59 16.57,43.15 30.27,86.31 39.66,129.47 38.84,5.75 90.97,-1.44 156.06,-20.14 65.08,-18.7 133.03,-43.16 202.42,-73.37 69.39,-30.21 136.26,-61.86 202.04,-94.94 65.79,-33.09 118.99,-61.86 159.26,-84.87 75.48,-48.91 132.28,-86.31 169.3,-113.65 37.02,-27.33 73.34,-34.52 110.03,-20.14 20.87,8.64 34.18,24.46 38.52,47.48 4.33,23.01 0.4,50.34 -10.37,81.99 -23.33,70.49 -63.2,132.34 -121.42,187.01 -58.23,54.66 -123.99,110.76 -195.88,168.31 -115.02,92.06 -245.14,181.25 -390.73,269 -145.22,86.31 -297.66,155.36 -457.3,207.15 -59.57,181.25 -143.95,363.94 -250.99,545.19 -107.04,181.26 -235.67,345.25 -384.46,491.98 -148.42,145.29 -317.37,263.25 -505.03,352.44 -189.09,89.18 -391.54,133.78 -611.63,133.78 -169.75,0 -326.93,-33.09 -471.9,-97.82 -143.55,-64.73 -263.36,-155.36 -357.31,-274.76 -94.31,-117.96 -159.14,-261.81 -193.43,-430.12 -34.28,-168.3 -26.14,-356.75 25.85,-565.33 51.64,-207.15 137.44,-412.86 257.77,-618.57 121.42,-204.27 263.34,-386.96 429.73,-546.64 165.32,-161.11 350.07,-290.58 551.75,-389.83 203.13,-99.26 414.19,-149.61 634.28,-149.61 71.93,0 153.21,2.88 245.28,8.63 90.64,5.75 174.79,25.89 254.3,58.98 78.06,33.09 142.83,84.87 192.88,155.36 50.03,70.49 68.44,169.75 54.14,296.34zm-1414.43 1992.35c69.05,0 134.84,-33.09 197,-97.82 62.17,-64.74 121.09,-145.29 175.33,-241.68 54.24,-96.38 101.28,-198.51 141.48,-307.84 40.19,-109.33 70.34,-207.15 91.86,-293.46l7.53 -30.21c-95.7,-43.15 -170.56,-117.95 -226.37,-222.97 -55.82,-105.01 -62.4,-245.98 -17.93,-424.36 20.8,-83.43 69.3,-156.8 144.05,-220.09 74.76,-63.3 153.48,-113.65 237.62,-151.05 -2.92,-46.03 -15.17,-83.43 -36.77,-112.2 -21.6,-28.77 -56.85,-43.16 -105.76,-43.16 -37.4,0 -81.63,10.07 -132.68,30.21 -76.94,31.65 -152.78,87.75 -224.65,168.31 -73.31,80.55 -139.41,172.62 -200.12,277.63 -60.7,105.01 -116.36,218.66 -165.54,340.93 -49.18,122.28 -89.02,241.67 -117.7,356.75 -45.19,181.26 -67.38,333.74 -68.01,457.45 -0.63,123.72 13.47,222.97 43.37,299.22 28.46,76.24 66.63,130.9 113.04,163.99 46.41,33.08 95.34,50.35 144.25,50.35z"/>
    <path id="5" class="fil0" d="M13306.13 11280.04c37.32,-103.57 83.65,-191.32 137.18,-261.81 53.54,-70.49 109.95,-129.46 172.14,-176.94 60.74,-47.47 124.38,-83.43 189.44,-107.88 65.08,-24.46 131.6,-43.16 198.49,-57.55 97.08,-20.13 170.09,-18.7 217.57,4.32 47.49,23.02 81.67,53.23 100.76,92.07 19.09,38.84 27.03,81.99 22.76,128.02 -4.29,46.04 -10.73,83.44 -17.91,112.21 -28.7,92.06 -57.05,182.69 -86.83,273.32 -29.79,90.62 -59.93,182.69 -88.63,274.75 68.26,-89.18 143,-175.5 222.78,-258.93 79.77,-83.43 164.23,-156.8 250.5,-220.09 86.27,-63.3 173.98,-115.08 264.22,-153.92 88.8,-38.84 176.9,-57.55 263.21,-57.55 116.52,0 211.47,17.27 284.87,51.79 73.38,34.53 130.6,82 173.07,142.42 41.05,60.41 68.07,130.9 80.72,212.9 12.64,81.99 16.3,171.18 9.9,266.12 -9.29,94.94 -23.96,194.2 -45.82,299.21 -21.87,105.02 -48.05,210.03 -77.09,315.04 -29.06,105.01 -59.2,208.59 -91.49,309.28 -32.3,100.7 -61.36,194.2 -85.75,280.51 -13.64,43.16 -26.91,90.63 -39.82,142.42 -12.91,51.78 -20.78,100.69 -25.07,146.73 -4.29,46.03 -1.02,84.87 9.43,117.95 10.46,33.09 34.56,51.79 74.13,54.67 57.54,0 119.38,-17.26 184.09,-51.79 64.71,-34.52 129.05,-79.12 192.67,-132.34 63.62,-53.23 125.43,-110.77 185.44,-172.62 60.02,-61.86 113.56,-120.84 162.43,-178.38 48.87,-57.54 90.55,-109.33 124.68,-153.92 34.14,-44.6 58.57,-73.37 73.66,-87.75 35.93,-40.28 71.16,-60.42 105.69,-60.42 23.01,0 35.62,12.95 37.43,40.28 1.82,27.33 -0.32,58.98 -6.05,93.5 -3.58,14.39 -26.21,58.98 -68.23,135.22 -42.02,76.24 -100.93,168.31 -176.38,274.76 -75.44,106.45 -164.19,220.09 -266.25,340.93 -102.04,120.84 -214.53,231.6 -338.89,332.3 -124.36,100.69 -257.37,184.13 -397.93,251.74 -140.57,67.61 -287.27,102.13 -439.75,102.13 -126.59,0 -221.2,-30.21 -285.26,-90.62 -64.06,-60.42 -106.18,-139.54 -126.4,-237.36 -20.2,-97.82 -23.88,-210.02 -11.39,-335.17 12.5,-125.16 32.91,-253.18 63.03,-385.53 7.15,-51.78 17.54,-105.01 30.81,-158.23 13.27,-53.23 26.18,-105.02 39.08,-156.8 17.22,-69.05 41.61,-155.36 73.19,-258.94 31.57,-103.57 56.32,-202.83 74.23,-297.77 17.91,-94.94 25.41,-176.94 22.49,-245.99 -2.93,-69.05 -31.72,-103.57 -87.83,-103.57 -86.31,0 -171.51,41.72 -253.81,123.71 -82.3,82 -163.85,195.64 -241.79,340.93 -77.93,145.29 -154.41,319.35 -227.28,519.31 -72.86,199.95 -141.75,418.61 -206.31,654.52 -32.28,129.47 -63.49,237.36 -95.44,325.11 -31.59,86.31 -77.21,153.92 -135.43,202.83 -33.06,28.77 -75.13,53.23 -127.98,74.8 -52.85,21.58 -125.84,37.4 -217.19,46.04 -67.6,5.75 -121.18,7.19 -162.18,4.31 -41,-2.88 -74.1,-14.38 -98.2,-33.08 -24.11,-18.71 -41.4,-47.48 -51.49,-87.75 -10.1,-40.28 -16.97,-93.51 -20.61,-159.68 -5.48,-105.01 4.14,-230.16 29.57,-378.33 25.8,-149.61 55.9,-293.46 89.6,-434.43 34.07,-142.42 65.98,-264.69 96.48,-369.7 30.49,-105.02 46.99,-165.43 50.58,-179.82 30.83,-123.71 62.4,-244.55 94.33,-361.07 31.92,-116.52 62.41,-221.53 90.04,-315.03 27.62,-93.51 50.58,-174.06 69.6,-238.8 19,-64.73 32.28,-106.45 40.19,-126.59z"/>
   </g>
  </g>
  <polygon class="fil1" points="3095.84,1327.88 19138.21,1327.88 19138.21,17370.25 3095.84,17370.25 "/>
 </g>
</svg>
